<svg width="451" height="451" viewBox="0 0 451 451" fill="none" xmlns="http://www.w3.org/2000/svg">
<g opacity="0.8">
<g clip-path="url(#clip0_7_3523)">
<path d="M131.11 54.2908C146.032 53.8269 160.658 49.2547 175.623 49.8759L181.081 44.4188C162.164 42.2973 142.696 49.7235 123.553 48.214C122.054 48.0956 121.158 48.9491 120.843 50.0406C120.274 51.0391 120.293 52.2899 121.457 53.2745C130.7 61.0896 137.277 71.3566 144.602 80.8982L145.196 80.3036L148.695 76.8045C142.885 69.2362 137.664 61.2208 131.11 54.2908Z" fill="#F7F7FC"/>
<path d="M78.2616 147.239L80.8869 144.613C71.3507 137.287 61.0853 130.696 53.2742 121.458C52.2914 120.296 51.0417 120.276 50.0443 120.842C48.9511 121.155 48.0953 122.05 48.214 123.554C49.7248 142.703 42.2382 162.156 44.3888 181.111L49.8596 175.641C49.2591 160.696 53.8284 146.036 54.2932 131.114C61.2224 137.668 69.2342 142.885 76.8017 148.699L76.8044 148.696L78.2616 147.239Z" fill="#F7F7FC"/>
<path d="M28.0366 167.987C22.6752 167.753 18.6441 171.836 17.971 176.866C17.8548 177.446 17.8541 178.042 17.969 178.622C18.6184 183.53 22.4442 187.531 27.6655 187.531C32.9963 187.531 37.4211 183.057 37.4468 177.749C37.4725 172.546 33.183 168.211 28.0366 167.987ZM23.8128 177.749C24.0789 172.806 31.5193 172.767 31.5193 177.749C31.5184 182.736 24.0775 182.689 23.8128 177.749Z" fill="#F7F7FC"/>
<path d="M178.631 17.971C178.052 17.8548 177.455 17.8541 176.876 17.9688C171.968 18.6182 167.967 22.4438 167.967 27.6653C167.967 32.9963 172.44 37.4206 177.749 37.447C182.951 37.4725 187.286 33.183 187.51 28.0367C187.744 22.6754 183.661 18.6441 178.631 17.971ZM177.749 31.5184C172.762 31.5184 172.808 24.0769 177.749 23.8117C182.691 24.078 182.73 31.5184 177.749 31.5184V31.5184Z" fill="#F7F7FC"/>
<path d="M4.98535 220.515L12.4145 213.085C6.36113 203.816 3.0111 193.076 4.27841 180.841C19.9173 156.262 45.56 130.595 41.4936 100.236C54.6853 117.589 77.1318 122.591 99.1796 126.32L106.032 119.468C92.2712 116.71 78.4109 114.219 65.8147 108.037C48.0252 99.3075 35.6373 82.9711 31.1102 63.8391C33.9727 62.4518 36.7399 60.876 39.3935 59.122C43.7456 68.1312 48.9468 77.5679 58.6205 81.6472C64.1739 83.9895 70.9892 84.0639 76.171 80.8404C79.0738 84.0624 82.177 87.0981 85.462 89.9294C82.7815 94.7206 83.2127 100.787 87.3312 104.938C92.0793 109.723 100.189 109.723 104.938 104.938C109.701 100.138 109.733 92.1283 104.938 87.3319C100.801 83.1955 94.7188 82.7847 89.9287 85.4631C87.1028 82.1835 84.073 79.0852 80.8573 76.1868C84.0953 71.0215 83.9676 64.1236 81.6466 58.6203C77.5776 48.9709 68.1657 43.7646 59.1768 39.4199C60.9331 36.764 62.5064 33.9914 63.8855 31.1215C82.9969 35.659 99.3158 48.041 108.038 65.8151C114.219 78.41 116.71 92.2717 119.469 106.033L126.321 99.1803C122.592 77.1318 117.591 54.6867 100.237 41.4938C130.594 45.5578 156.265 19.9157 180.841 4.27819C193.072 3.01245 203.811 6.36316 213.082 12.4187L220.515 4.98626C217.571 3.06991 214.472 1.40206 211.251 0L174.553 0C158.015 9.35194 143.273 22.1252 125.432 28.9497C106.021 36.3732 84.7174 33.9828 67.1435 23.1433C68.1696 20.1327 68.9956 17.0576 69.6161 13.9382C79.0847 17.2392 89.4743 20.2483 99.22 16.2732C104.789 14.0015 109.642 9.22994 111.023 3.29952C115.364 3.51908 119.713 3.47073 124.048 3.15474C125.558 8.43144 130.05 12.4494 135.956 12.4494C142.719 12.4494 148.405 6.76072 148.405 0H142.476C142.476 8.43235 129.883 8.35703 129.433 0H101.768C101.768 7.28365 93.5099 10.6646 87.4451 10.8175C81.6596 10.9634 76.0185 8.92867 70.6325 7.01936C70.8646 4.68664 70.9845 2.34685 70.9924 0H65.1055C65.1753 10.6354 62.6083 21.1223 57.6342 30.523C46.3076 51.7973 23.7348 65.1382 0 65.2234V71.0722C2.35452 71.059 4.70055 70.93 7.03808 70.6855C8.82945 75.738 10.7137 80.9867 10.7949 86.3933C10.8896 92.6663 7.84221 101.768 0 101.768V129.433C8.35568 129.884 8.42693 142.476 0 142.476V148.404C6.57784 148.404 12.1545 143.032 12.4214 136.471C12.6708 130.364 8.60756 125.614 3.15474 124.048C3.47021 119.721 3.51893 115.379 3.30064 111.047C9.23129 109.687 14.0214 104.738 16.2732 99.2184C20.2434 89.487 17.2415 79.0937 13.9451 69.6355C17.0586 68.9995 20.1269 68.1599 23.1304 67.1221C33.9786 84.6973 36.3765 106.014 28.9483 125.432C22.1263 143.271 9.35149 158.016 0 174.553V211.251C1.40169 214.472 3.06924 217.571 4.98535 220.515V220.515ZM91.5232 91.5232C97.6895 85.8361 106.704 94.7871 100.746 100.746C94.7885 106.705 85.8291 97.6968 91.5232 91.5232V91.5232ZM55.0301 45.0357C59.8468 47.3311 64.864 49.7101 68.7225 53.4561C73.2223 57.8245 77.5084 66.4138 71.9609 71.9611C66.8078 77.1142 58.5813 73.6591 54.1838 69.4824C50.0175 65.5244 47.4671 60.1332 45.0242 55.0053C48.6888 52.0298 52.0413 48.6894 55.0301 45.0357V45.0357Z" fill="#F7F7FC"/>
<path d="M44.5178 33.3684C51.8425 23.6867 55.5467 11.8518 55.5585 0H49.638C49.6207 1.93774 49.4903 3.87282 49.2474 5.79535C44.2753 4.87832 39.3035 3.96083 34.3322 3.0429C34.4291 2.03326 34.4828 1.01896 34.4932 0H28.606C28.507 11.1652 21.8501 21.9057 10.9253 26.4236C7.4621 27.8574 3.74817 28.5873 0 28.5708L0 34.5015C1.0155 34.5096 2.03326 34.472 3.05327 34.3888C3.97106 39.3624 4.88892 44.336 5.80685 49.3096C3.87885 49.5243 1.93987 49.6251 0 49.6114L0 55.623C17.1806 55.5242 33.8972 47.4064 44.5178 33.3684ZM33.28 8.85651L48.1594 11.6027C46.9183 16.6197 44.9255 21.4202 42.2486 25.8412L29.7944 17.2672C31.3122 14.6244 32.4837 11.7974 33.28 8.85561V8.85651ZM19.0058 45.9337C16.6142 46.9212 14.1475 47.716 11.6293 48.3107C10.7122 43.3372 9.79437 38.3637 8.87568 33.3902C10.3634 33.0029 11.823 32.5143 13.2441 31.9279C14.6509 31.3411 16.0162 30.6596 17.3308 29.888L25.9363 42.389C23.7251 43.7545 21.4075 44.9395 19.006 45.9328L19.0058 45.9337ZM30.7616 38.9702C27.8943 34.8034 25.0267 30.6379 22.159 26.4737C23.7091 25.1559 25.1393 23.7031 26.4327 22.1326C30.591 24.9951 34.7491 27.8576 38.9069 30.7201C36.524 33.7791 33.7903 36.5478 30.7618 38.9693L30.7616 38.9702Z" fill="#F7F7FC"/>
<path d="M2.55965 23.1011C5.15403 19.2478 4.84983 14.3292 4.0829 9.58398C4.92582 10.7034 5.76581 11.8259 6.6394 12.9193C8.68851 15.4853 11.1744 17.5613 14.489 18.1352C16.8257 18.5411 18.5402 16.8257 18.1354 14.4891C17.5617 11.1765 15.4801 8.69212 12.9198 6.63917C11.8288 5.76468 10.707 4.92537 9.58781 4.08335C14.3326 4.85005 19.2482 5.15358 23.1011 2.55965C23.533 2.28513 23.8898 1.9074 24.1392 1.46053C24.3887 1.01366 24.5229 0.511723 24.5299 0L0.433411 0C0.424616 0.0570515 0.410861 0.11275 0.405223 0.169802C0.369594 0.212647 0.340054 0.260002 0.306454 0.305102C0.261354 0.339378 0.21197 0.369369 0.168899 0.405675C0.11275 0.411538 0.057277 0.424842 0 0.433411V24.5297C0.511702 24.5227 1.01363 24.3885 1.46049 24.1391C1.90736 23.8897 2.2851 23.533 2.55965 23.1011V23.1011Z" fill="#F7F7FC"/>
<path d="M269.889 44.3887L274.685 49.1848L275.359 49.8593C290.303 49.2586 304.964 53.8281 319.887 54.2931C313.332 61.222 308.115 69.2338 302.301 76.8014L306.387 80.887C313.713 71.3508 320.305 61.0854 329.542 53.2745C330.704 52.2918 330.725 51.042 330.158 50.0444C329.846 48.951 328.95 48.0959 327.446 48.2143C308.297 49.7229 288.844 42.2388 269.889 44.3887Z" fill="#F7F7FC"/>
<path d="M402.743 177.243L406.582 181.082C408.703 162.165 401.277 142.697 402.787 123.555C402.905 122.055 402.052 121.16 400.96 120.845C399.962 120.276 398.711 120.295 397.727 121.459C389.912 130.701 379.645 137.279 370.103 144.603L374.197 148.697C381.764 142.886 389.779 137.665 396.71 131.11C397.174 146.033 401.746 160.659 401.125 175.624L401.142 175.641L402.743 177.243Z" fill="#F7F7FC"/>
<path d="M273.251 37.4466C278.454 37.472 282.789 33.1826 283.013 28.0362C283.247 22.6754 279.164 18.6441 274.134 17.971C273.555 17.8548 272.958 17.8541 272.378 17.9688C267.471 18.6182 263.47 22.4438 263.47 27.6653C263.47 32.9959 267.943 37.4202 273.251 37.4466ZM273.251 23.8117C278.194 24.078 278.233 31.5184 273.251 31.5184C268.265 31.5184 268.311 24.0776 273.251 23.8126V23.8117Z" fill="#F7F7FC"/>
<path d="M433.031 176.875C432.382 171.968 428.556 167.967 423.335 167.967C418.004 167.967 413.579 172.44 413.553 177.748C413.527 182.951 417.817 187.286 422.963 187.51C428.324 187.744 432.356 183.661 433.029 178.631C433.145 178.051 433.145 177.455 433.031 176.875H433.031ZM419.481 177.748C419.481 172.761 426.923 172.808 427.188 177.748C426.922 182.69 419.481 182.73 419.481 177.748Z" fill="#F7F7FC"/>
<path d="M230.485 4.98535L236.266 10.766L237.914 12.4145C247.184 6.36113 257.923 3.0111 270.159 4.27819C294.738 19.9171 320.404 45.56 350.763 41.4934C333.411 54.6865 328.409 77.1321 324.679 99.1796L331.532 106.032C334.29 92.2712 336.781 78.4111 342.962 65.8144C351.69 48.0279 368.023 35.6425 387.151 31.1118C388.561 33.9659 390.157 36.724 391.929 39.368C382.905 43.7247 373.441 48.9274 369.353 58.6194C367.011 64.173 366.937 70.9881 370.161 76.1694C366.938 79.0726 363.902 82.1762 361.071 85.4618C356.28 82.7817 350.213 83.2127 346.062 87.3312C341.277 92.0793 341.277 100.189 346.062 104.937C350.863 109.701 358.872 109.733 363.668 104.937C367.804 100.801 368.216 94.7188 365.538 89.9287C368.817 87.1028 371.915 84.073 374.814 80.8573C379.978 84.0953 386.876 83.9672 392.38 81.6466C402.044 77.5716 407.251 68.1373 411.6 59.1365C414.244 60.9194 417.006 62.5211 419.867 63.9304C415.322 83.0226 402.945 99.3224 385.186 108.038C372.591 114.219 358.729 116.71 344.968 119.469L351.821 126.321C373.869 122.592 396.314 117.591 409.507 100.237C405.442 130.594 431.084 156.266 446.722 180.841C447.988 193.072 444.637 203.812 438.582 213.083L446.015 220.516C447.931 217.571 449.598 214.472 451 211.251V174.553C441.648 158.015 428.875 143.273 422.051 125.432C414.64 106.059 417.01 84.8015 427.794 67.2477C428.619 67.5333 429.451 67.8051 430.29 68.0629C432.503 68.7337 434.749 69.2926 437.019 69.7375C433.735 79.1731 430.769 89.5161 434.727 99.2187C436.998 104.789 441.77 109.641 447.7 111.022C447.48 115.362 447.529 119.712 447.845 124.046C442.568 125.557 438.55 130.049 438.55 135.954C438.55 142.717 444.239 148.404 451 148.404V142.476C442.568 142.476 442.643 129.884 451 129.433V101.768C443.716 101.768 440.335 93.5097 440.182 87.4451C440.038 81.7045 442.04 76.1058 443.937 70.7581C446.284 70.982 448.642 71.0874 451 71.0738V65.2234C447.626 65.2367 444.256 64.9803 440.924 64.4567C414.635 60.3176 393.056 39.978 387.307 14.0123C386.287 9.41176 385.778 4.71239 385.791 0L379.872 0C379.869 1.82091 379.933 3.6531 380.079 5.49205C380.121 6.01905 380.181 6.54198 380.235 7.06649C375.206 8.84794 369.985 10.714 364.608 10.7951C358.334 10.8894 349.232 7.84221 349.232 0H321.567C321.116 8.35545 308.524 8.42694 308.524 0H302.596C302.596 6.57784 307.968 12.1545 314.529 12.4214C320.636 12.6708 325.386 8.60756 326.952 3.15475C331.279 3.47021 335.621 3.51893 339.953 3.30064C341.312 9.22994 346.262 14.0216 351.781 16.2732C361.486 20.2323 371.849 17.2582 381.286 13.9731C381.924 17.0897 382.773 20.1596 383.826 23.1618C366.26 33.9829 344.966 36.3695 325.568 28.9501C307.729 22.1258 292.984 9.35126 276.447 0H239.748C236.528 1.4017 233.429 3.06917 230.485 4.98513L230.485 4.98535ZM350.254 100.746C344.299 94.7894 353.303 85.8291 359.477 91.5226C365.164 97.6895 356.213 106.704 350.254 100.746V100.746ZM406.002 54.9498C403.696 59.7911 401.311 64.8425 397.544 68.7225C393.175 73.2223 384.586 77.5084 379.039 71.9611C373.886 66.8078 377.341 58.5813 381.518 54.184C385.499 49.9934 390.93 47.4371 396.085 44.9814C399.06 48.6181 402.381 51.9566 406.002 54.9498V54.9498Z" fill="#F7F7FC"/>
<path d="M434.809 53.2669C440.056 54.8648 445.515 55.6591 451 55.623V49.6113C449.063 49.598 447.129 49.4714 445.208 49.2323C446.124 44.269 447.04 39.3056 447.956 34.3421C448.966 34.4395 449.98 34.4921 451 34.4999V28.5708C439.794 28.5257 429.099 21.8615 424.576 10.9246C423.128 7.46474 422.383 3.75089 422.386 0L416.453 0C416.447 1.01655 416.486 2.03664 416.572 3.06026C411.598 3.9785 406.624 4.89643 401.65 5.81407C401.429 3.88412 401.324 1.94258 401.336 0L395.356 0C395.358 1.31895 395.405 2.64511 395.505 3.97759C397.205 26.713 412.95 46.5971 434.809 53.2669ZM433.735 29.7906C436.377 31.3092 439.203 32.4812 442.145 33.2777C441.229 38.2396 440.313 43.2013 439.398 48.1627C434.377 46.9294 429.572 44.9403 425.149 42.2634L433.735 29.7906ZM424.541 22.1491C425.859 23.6963 427.311 25.1244 428.879 26.4169C426.013 30.5811 423.147 34.7453 420.28 38.9096C417.219 36.5279 414.449 33.7944 412.027 30.7654C416.198 27.8933 420.37 25.0212 424.541 22.1491V22.1491ZM417.587 8.88042C418.016 10.491 418.562 12.0679 419.222 13.5986C419.779 14.8782 420.413 16.1224 421.122 17.3243L408.614 25.9352C407.248 23.7243 406.062 21.4071 405.067 19.006C404.077 16.6142 403.275 14.1488 402.669 11.6322L417.587 8.88042Z" fill="#F7F7FC"/>
<path d="M427.899 2.55965C431.752 5.15403 436.671 4.84983 441.416 4.08268C440.296 4.92605 439.174 5.76581 438.08 6.63917C435.515 8.68829 433.439 11.174 432.865 14.4891C432.459 16.8257 434.174 18.5399 436.511 18.1352C439.823 17.5617 442.308 15.4801 444.361 12.9193C445.235 11.8286 446.074 10.7067 446.917 9.58781C446.15 14.3328 445.846 19.2482 448.44 23.1011C448.715 23.533 449.093 23.8897 449.54 24.1391C449.986 24.3885 450.488 24.5227 451 24.5297V0.433411C450.943 0.424391 450.887 0.410861 450.83 0.405224C450.788 0.369595 450.74 0.340054 450.695 0.306454C450.661 0.261354 450.63 0.212196 450.594 0.168674C450.588 0.11275 450.575 0.0570515 450.566 0.0011275V0H426.47C426.477 0.511723 426.611 1.01366 426.861 1.46053C427.11 1.9074 427.467 2.28513 427.899 2.55965V2.55965Z" fill="#F7F7FC"/>
<path d="M78.2616 147.238L76.8039 148.696C82.6146 156.264 87.8363 164.279 94.3905 171.209C79.4682 171.673 64.8419 176.245 49.8768 175.624L44.4197 181.081C63.3364 183.202 82.8045 175.776 101.947 177.286C103.446 177.404 104.342 176.551 104.657 175.459C105.226 174.461 105.207 173.21 104.043 172.225C94.8004 164.41 88.2237 154.143 80.8986 144.602L78.2616 147.238Z" fill="#F7F7FC"/>
<path d="M356.609 279.791C371.532 279.327 386.158 274.755 401.123 275.376L406.58 269.919C387.664 267.797 368.195 275.224 349.053 273.714C347.554 273.596 346.657 274.449 346.343 275.541C345.774 276.539 345.793 277.79 346.957 278.774C356.2 286.59 362.776 296.857 370.101 306.398L370.988 305.512L374.195 302.304C368.385 294.736 363.164 286.721 356.609 279.791Z" fill="#F7F7FC"/>
<path d="M101.946 273.714C82.7966 275.223 63.3441 267.738 44.3888 269.888L49.3922 274.892L49.8592 275.359C64.8035 274.758 79.464 279.328 94.3867 279.793C87.8325 286.722 82.6156 294.733 76.8013 302.301L80.8869 306.387C88.2136 296.85 94.805 286.585 104.042 278.774C105.204 277.791 105.225 276.542 104.658 275.544C104.345 274.45 103.449 273.595 101.946 273.714Z" fill="#F7F7FC"/>
<path d="M406.611 181.112L402.743 177.243L401.142 175.642C386.198 176.243 371.537 171.673 356.615 171.208C363.169 164.279 368.386 156.267 374.2 148.7L370.113 144.613C362.787 154.149 356.196 164.415 346.958 172.226C345.796 173.209 345.776 174.458 346.342 175.456C346.655 176.549 347.551 177.405 349.054 177.286C368.203 175.777 387.657 183.261 406.611 181.112Z" fill="#F7F7FC"/>
<path d="M177.243 402.743L181.082 406.582C183.203 387.665 175.778 368.197 177.287 349.055C177.405 347.556 176.552 346.659 175.46 346.345C174.462 345.776 173.211 345.795 172.227 346.959C164.412 356.201 154.145 362.778 144.604 370.103L148.697 374.197C156.264 368.386 164.279 363.165 171.21 356.61C171.674 371.533 176.246 386.159 175.625 401.124L175.642 401.141L177.243 402.743Z" fill="#F7F7FC"/>
<path d="M269.919 44.4189C267.797 63.3357 275.223 82.8035 273.714 101.946C273.596 103.445 274.449 104.341 275.54 104.656C276.538 105.225 277.789 105.206 278.774 104.042C286.589 94.7997 296.856 88.2225 306.397 80.8976L302.304 76.8055C294.736 82.6159 286.721 87.8374 279.791 94.3918C279.327 79.4695 274.754 64.8434 275.376 49.8781L275.359 49.8612L274.685 49.1867L269.919 44.4189Z" fill="#F7F7FC"/>
<path d="M175.642 49.8593C176.242 64.8036 171.673 79.4638 171.208 94.3863C164.279 87.8321 156.267 82.6152 148.7 76.8009L148.697 76.8038L145.197 80.3029L144.613 80.8867C154.149 88.2132 164.415 94.8046 172.226 104.042C173.208 105.204 174.458 105.224 175.456 104.658C176.549 104.345 177.404 103.45 177.286 101.946C175.775 82.7967 183.262 63.3442 181.111 44.3887L175.642 49.8593Z" fill="#F7F7FC"/>
<path d="M304.053 372.447L306.387 370.113C296.851 362.787 286.585 356.196 278.774 346.958C277.791 345.796 276.542 345.776 275.544 346.342C274.451 346.655 273.595 347.55 273.714 349.054C275.225 368.203 267.738 387.656 269.889 406.611L275.36 401.141C274.759 386.196 279.328 371.536 279.793 356.614C286.722 363.168 294.734 368.385 302.302 374.199L302.304 374.196L304.053 372.447Z" fill="#F7F7FC"/>
<path d="M207.531 46.8786C206.882 41.9705 203.056 37.9697 197.834 37.9697C192.504 37.9697 188.079 42.4425 188.053 47.7515C188.027 52.9538 192.317 57.2888 197.463 57.5131C202.825 57.7468 206.856 53.6639 207.529 48.6339C207.645 48.0546 207.646 47.4581 207.531 46.8786H207.531ZM193.981 47.7515C193.981 42.7645 201.423 42.8112 201.688 47.7515C201.422 52.6935 193.981 52.733 193.981 47.7515V47.7515Z" fill="#F7F7FC"/>
<path d="M57.5131 253.536C57.747 248.175 53.6643 244.144 48.6341 243.471C48.0547 243.355 47.458 243.354 46.8783 243.469C41.9705 244.118 37.9697 247.944 37.9697 253.165C37.9697 258.496 42.4427 262.921 47.7515 262.947C52.9538 262.972 57.2885 258.683 57.5131 253.536ZM47.7515 249.313C52.6937 249.579 52.7328 257.019 47.7515 257.019C42.7645 257.018 42.811 249.577 47.7515 249.313Z" fill="#F7F7FC"/>
<path d="M253.536 393.487C248.175 393.253 244.144 397.336 243.471 402.366C243.355 402.946 243.354 403.542 243.469 404.122C244.118 409.03 247.944 413.03 253.166 413.03C258.496 413.03 262.921 408.557 262.947 403.249C262.973 398.046 258.683 393.711 253.536 393.487ZM249.312 403.249C249.578 398.306 257.018 398.267 257.018 403.249C257.018 408.236 249.578 408.189 249.313 403.249H249.312Z" fill="#F7F7FC"/>
<path d="M403.248 188.053C398.046 188.028 393.711 192.317 393.487 197.464C393.253 202.824 397.336 206.856 402.366 207.529C402.945 207.645 403.542 207.646 404.121 207.531C409.029 206.882 413.03 203.056 413.03 197.835C413.03 192.504 408.557 188.079 403.248 188.053ZM403.248 201.688C398.306 201.422 398.267 193.982 403.248 193.982C408.235 193.982 408.189 201.422 403.248 201.687V201.688Z" fill="#F7F7FC"/>
<path d="M243.469 48.6244C244.118 53.5322 247.944 57.533 253.165 57.533C258.496 57.533 262.921 53.0598 262.947 47.7515C262.973 42.5492 258.683 38.2142 253.537 37.9901C248.175 37.756 244.144 41.8389 243.471 46.8691C243.355 47.4484 243.354 48.0449 243.469 48.6244H243.469ZM257.018 47.7515C257.018 52.7384 249.577 52.6917 249.312 47.7515C249.578 42.809 257.018 42.77 257.018 47.7515V47.7515Z" fill="#F7F7FC"/>
<path d="M47.7515 188.053C42.5494 188.028 38.2142 192.317 37.99 197.464C37.7562 202.824 41.8391 206.856 46.8691 207.529C47.4484 207.645 48.0448 207.646 48.6244 207.531C53.5324 206.882 57.533 203.056 57.533 197.835C57.533 192.504 53.0602 188.079 47.7515 188.053ZM47.7515 201.688C42.8092 201.422 42.77 193.982 47.7515 193.982C52.7384 193.982 52.6917 201.422 47.7515 201.687V201.688Z" fill="#F7F7FC"/>
<path d="M207.531 402.375C206.882 397.468 203.056 393.467 197.834 393.467C192.504 393.467 188.079 397.94 188.053 403.248C188.027 408.451 192.317 412.786 197.463 413.01C202.825 413.244 206.856 409.161 207.529 404.131C207.645 403.551 207.646 402.955 207.531 402.375H207.531ZM193.981 403.248C193.981 398.261 201.423 398.308 201.688 403.248C201.422 408.19 193.981 408.23 193.981 403.248V403.248Z" fill="#F7F7FC"/>
<path d="M404.131 243.472C403.552 243.356 402.955 243.356 402.376 243.47C397.468 244.12 393.467 247.945 393.467 253.167C393.467 258.498 397.94 262.922 403.249 262.948C408.451 262.974 412.786 258.684 413.01 253.538C413.244 248.176 409.161 244.144 404.131 243.472ZM403.249 257.02C398.262 257.02 398.308 249.578 403.249 249.313C408.191 249.578 408.23 257.019 403.249 257.019V257.02Z" fill="#F7F7FC"/>
<path d="M237.915 438.586C231.861 429.316 228.511 418.577 229.779 406.341C245.417 381.763 271.06 356.096 266.994 325.737C280.185 343.09 302.632 348.091 324.68 351.821L331.532 344.968C317.771 342.21 303.911 339.719 291.315 333.538C273.525 324.808 261.137 308.472 256.609 289.338C259.472 287.951 262.239 286.375 264.892 284.621C269.245 293.631 274.446 303.067 284.12 307.147C289.673 309.489 296.488 309.563 301.67 306.34C304.573 309.562 307.677 312.598 310.962 315.429C308.282 320.22 308.713 326.287 312.831 330.438C317.579 335.222 325.689 335.222 330.438 330.438C335.201 325.637 335.234 317.628 330.438 312.831C326.301 308.695 320.219 308.284 315.429 310.963C312.603 307.683 309.573 304.585 306.357 301.686C309.595 296.521 309.468 289.622 307.146 284.12C303.078 274.47 293.666 269.264 284.677 264.919C286.433 262.264 288.006 259.491 289.385 256.621C308.497 261.159 324.816 273.541 333.538 291.315C339.719 303.91 342.21 317.771 344.969 331.532L351.821 324.68C348.092 302.631 343.091 280.186 325.737 266.993C356.094 271.058 381.766 245.416 406.342 229.778C418.572 228.513 429.312 231.863 438.583 237.919L446.015 230.486C443.071 228.57 439.972 226.902 436.751 225.5C439.972 224.099 443.071 222.431 446.015 220.515L438.585 213.086C429.317 219.139 418.577 222.489 406.341 221.222C381.763 205.583 356.096 179.94 325.737 184.006C343.09 170.815 348.091 148.368 351.82 126.321L344.968 119.468C342.21 133.229 339.719 147.089 333.538 159.686C324.827 177.438 308.54 189.81 289.458 194.361C288.302 191.971 287.008 189.651 285.583 187.411C285.294 186.957 284.987 186.521 284.688 186.075C293.677 181.73 303.077 176.53 307.146 166.881C309.489 161.327 309.563 154.512 306.339 149.33C309.562 146.427 312.597 143.324 315.429 140.038C320.22 142.719 326.287 142.287 330.438 138.169C335.223 133.421 335.223 125.311 330.438 120.563C325.637 115.799 317.628 115.767 312.831 120.563C308.695 124.699 308.284 130.781 310.962 135.571C307.683 138.397 304.585 141.427 301.686 144.643C296.522 141.405 289.624 141.533 284.12 143.854C274.432 147.939 269.223 157.41 264.868 166.432C262.215 164.689 259.449 163.126 256.587 161.752C261.097 142.581 273.5 126.206 291.314 117.464C303.909 111.284 317.771 108.792 331.532 106.033L324.679 99.181C302.631 102.91 280.186 107.911 266.993 125.265C271.058 94.9078 245.415 69.2364 229.778 44.6605C228.512 32.4298 231.863 21.6899 237.917 12.4192L236.265 10.7674L230.485 4.9867C228.569 7.93037 226.902 11.0285 225.5 14.2489C224.098 11.028 222.431 7.92948 220.515 4.98535L213.086 12.4147C219.139 21.6839 222.489 32.4235 221.222 44.6594C205.583 69.2375 179.94 94.9048 184.007 125.263C170.815 107.911 148.368 102.909 126.32 99.1801L119.468 106.032C133.229 108.79 147.089 111.282 159.685 117.463C177.458 126.184 189.839 142.498 194.377 161.608C191.528 163.036 188.775 164.65 186.136 166.437C181.778 157.41 176.574 147.942 166.881 143.854C161.327 141.512 154.512 141.437 149.33 144.661C146.427 141.438 143.324 138.402 140.038 135.571C142.719 130.78 142.287 124.713 138.168 120.562C133.421 115.777 125.311 115.777 120.563 120.562C115.799 125.363 115.767 133.372 120.563 138.168C124.699 142.304 130.781 142.716 135.571 140.037C138.397 143.317 141.427 146.415 144.643 149.313C141.404 154.479 141.532 161.378 143.854 166.88C147.946 176.584 157.442 181.795 166.477 186.155C164.706 188.795 163.111 191.549 161.702 194.4C142.553 189.881 126.198 177.487 117.463 159.686C111.283 147.091 108.791 133.229 106.032 119.468L99.1802 126.321C102.909 148.369 107.91 170.814 125.264 184.008C94.9067 179.943 69.2349 205.585 44.6592 221.223C32.4286 222.489 21.6887 219.138 12.4177 213.084L12.4145 213.087L4.98544 220.515C7.9295 222.431 11.028 224.098 14.2488 225.5C11.0278 226.902 7.92916 228.569 4.98499 230.485V230.485L10.6676 236.168L12.4132 237.914C21.6826 231.86 32.4222 228.51 44.6577 229.777C69.2372 245.416 94.9031 271.059 125.262 266.992C107.91 280.186 102.908 302.631 99.1784 324.679L106.031 331.531C108.789 317.77 111.28 303.91 117.461 291.314C126.189 273.527 142.522 261.142 161.65 256.611C163.06 259.465 164.656 262.223 166.428 264.867C157.404 269.224 147.94 274.427 143.852 284.119C141.51 289.672 141.436 296.487 144.659 301.669C141.437 304.572 138.402 307.675 135.57 310.961C130.779 308.281 124.712 308.712 120.561 312.83C115.776 317.578 115.776 325.688 120.561 330.436C125.362 335.2 133.371 335.233 138.167 330.436C142.303 326.3 142.715 320.218 140.037 315.428C143.316 312.602 146.414 309.572 149.313 306.356C154.477 309.594 161.375 309.467 166.879 307.146C176.542 303.071 181.75 293.636 186.099 284.636C188.743 286.419 191.505 288.02 194.366 289.429C189.821 308.522 177.444 324.821 159.685 333.537C147.09 339.718 133.228 342.21 119.467 344.968L126.32 351.82C148.368 348.091 170.813 343.09 184.006 325.736C179.941 356.093 205.583 381.765 221.221 406.34C222.487 418.571 219.136 429.311 213.08 438.582L220.513 446.015C222.429 443.071 224.098 439.972 225.5 436.752C226.902 439.972 228.569 443.071 230.485 446.015L237.915 438.586ZM317.023 317.023C323.19 311.336 332.204 320.288 326.246 326.246C320.289 332.205 311.329 323.197 317.023 317.023V317.023ZM326.246 124.755C332.202 130.711 323.198 139.671 317.023 133.978C311.336 127.811 320.287 118.796 326.246 124.755H326.246ZM133.978 133.978C127.811 139.665 118.797 130.714 124.755 124.755C130.712 118.795 139.671 127.803 133.977 133.977L133.978 133.978ZM124.755 326.247C118.799 320.291 127.803 311.33 133.978 317.024C139.664 323.19 130.713 332.204 124.755 326.246V326.247ZM294.223 278.957C298.722 283.326 303.009 291.915 297.461 297.462C292.308 302.615 284.081 299.16 279.684 294.984C275.518 291.026 272.967 285.634 270.524 280.507C274.189 277.531 277.541 274.191 280.53 270.537C285.348 272.831 290.364 275.21 294.223 278.956V278.957ZM296.171 218.468C301.228 216.675 306.482 214.788 311.893 214.706C318.167 214.612 327.268 217.659 327.268 225.501C327.268 232.785 319.01 236.166 312.945 236.319C307.16 236.464 301.519 234.43 296.133 232.52C296.6 227.848 296.613 223.142 296.172 218.467L296.171 218.468ZM324.719 241.774C330.289 239.503 335.142 234.731 336.523 228.801C340.863 229.02 345.213 228.972 349.547 228.656C351.058 233.933 355.55 237.951 361.455 237.951C368.218 237.951 373.904 232.262 373.904 225.501C373.904 218.923 368.533 213.348 361.972 213.08C355.864 212.83 351.115 216.894 349.549 222.346C345.222 222.031 340.88 221.982 336.548 222.201C335.188 216.271 330.239 211.48 324.719 209.228C314.998 205.262 304.616 208.253 295.166 211.546C294.561 208.416 293.746 205.33 292.724 202.31C310.28 191.515 331.553 189.139 350.933 196.551C368.771 203.375 383.517 216.149 400.053 225.501C383.516 234.853 368.774 247.626 350.933 254.451C331.522 261.875 310.218 259.483 292.644 248.644C293.67 245.634 294.496 242.559 295.117 239.439C304.585 242.74 314.974 245.749 324.719 241.773L324.719 241.774ZM354.934 225.5C355.385 217.145 367.976 217.073 367.976 225.5C367.976 233.933 355.384 233.857 354.934 225.5ZM278.956 156.778C283.325 152.278 291.914 147.992 297.461 153.539C302.614 158.692 299.159 166.919 294.982 171.316C291.028 175.478 285.644 178.028 280.521 180.469C277.525 176.83 274.168 173.504 270.503 170.54C272.808 165.701 275.192 160.655 278.956 156.778ZM196.551 100.068C203.374 82.2297 216.148 67.4836 225.5 50.9472C234.852 67.4852 247.626 82.2272 254.45 100.068C261.892 119.525 259.472 140.885 248.568 158.483C245.565 157.464 242.5 156.643 239.39 156.025C242.71 146.519 245.769 136.074 241.774 126.281C239.502 120.713 234.731 115.859 228.8 114.478C229.02 110.138 228.971 105.788 228.655 101.454C233.932 99.9432 237.95 95.451 237.95 89.5461C237.95 82.7831 232.261 77.0966 225.501 77.0966C218.923 77.0966 213.347 82.4681 213.079 89.0292C212.83 95.1369 216.893 99.8864 222.346 101.452C222.03 105.779 221.982 110.121 222.2 114.453C216.269 115.813 211.479 120.763 209.227 126.281C205.25 136.03 208.269 146.441 211.573 155.912C208.443 156.508 205.356 157.31 202.331 158.311C191.517 140.749 189.133 119.461 196.551 100.068ZM236.318 138.055C236.464 143.881 234.4 149.562 232.478 154.983C227.833 154.52 223.154 154.504 218.505 154.936C216.701 149.846 214.787 144.557 214.705 139.106C214.61 132.833 217.658 123.731 225.5 123.731C232.784 123.732 236.165 131.991 236.318 138.055ZM225.5 83.0246C233.932 83.0246 233.857 95.6167 225.5 96.0668C217.144 95.6167 217.073 83.0246 225.5 83.0246ZM156.778 172.044C152.278 167.675 147.992 159.086 153.539 153.539C158.692 148.386 166.919 151.841 171.316 156.018C175.521 160.012 178.08 165.466 180.543 170.635C176.939 173.618 173.629 176.94 170.658 180.554C165.785 178.231 160.686 175.839 156.778 172.044ZM154.579 230.992C154.621 231.519 154.681 232.042 154.735 232.567C149.706 234.349 144.485 236.214 139.108 236.295C132.835 236.39 123.733 233.341 123.733 225.5C123.733 218.217 131.991 214.836 138.056 214.683C143.795 214.538 149.392 216.539 154.739 218.435C154.306 222.607 154.252 226.81 154.579 230.992V230.992ZM126.281 209.227C120.713 211.499 115.859 216.27 114.478 222.2C110.138 221.981 105.788 222.03 101.454 222.345C99.9428 217.069 95.4509 213.051 89.5457 213.051C82.7825 213.051 77.0963 218.74 77.0963 225.5C77.0963 232.078 82.4677 237.654 89.0289 237.922C95.1363 238.171 99.886 234.108 101.452 228.655C105.779 228.97 110.121 229.019 114.453 228.801C115.812 234.73 120.762 239.522 126.281 241.773C135.986 245.733 146.349 242.758 155.786 239.473C156.424 242.59 157.273 245.66 158.326 248.662C140.76 259.483 119.466 261.87 100.068 254.45C82.2296 247.627 67.4832 234.852 50.9475 225.501C67.485 216.149 82.2271 203.376 100.068 196.551C119.476 189.127 140.775 191.517 158.346 202.352C157.286 205.349 156.431 208.415 155.787 211.528C146.345 208.24 135.992 205.265 126.281 209.227ZM96.0667 225.5C95.6157 233.856 83.0245 233.927 83.0245 225.5C83.0245 217.068 95.6168 217.143 96.0667 225.5ZM172.044 294.223C167.675 298.723 159.086 303.009 153.539 297.461C148.386 292.308 151.841 284.082 156.018 279.684C159.999 275.494 165.43 272.937 170.585 270.482C173.56 274.118 176.881 277.457 180.503 280.45C178.196 285.291 175.811 290.343 172.044 294.223V294.223ZM161.808 239.512C154.945 208.513 171.937 177.957 200.448 165.266C225.424 155.581 253.79 160.843 272.567 180.385C291.801 200.401 296.196 231.489 283.135 256.023C270.211 280.297 242.649 294.242 215.424 289.956C189.135 285.817 167.557 265.477 161.808 239.512ZM214.682 312.945C214.538 307.205 216.54 301.606 218.437 296.258C223.128 296.703 227.852 296.679 232.538 296.187C234.329 301.239 236.214 306.488 236.295 311.895C236.39 318.168 233.342 327.27 225.5 327.27C218.216 327.268 214.836 319.01 214.682 312.945ZM225.5 367.976C217.068 367.976 217.143 355.384 225.5 354.934C233.856 355.384 233.927 367.976 225.5 367.976ZM196.551 350.932C189.14 331.559 191.51 310.302 202.295 292.748C203.119 293.034 203.951 293.306 204.79 293.563C207.003 294.234 209.249 294.793 211.519 295.238C208.235 304.673 205.269 315.016 209.227 324.719C211.498 330.289 216.27 335.141 222.2 336.522C221.981 340.863 222.029 345.212 222.345 349.546C217.068 351.059 213.05 355.549 213.05 361.455C213.05 368.218 218.739 373.904 225.5 373.904C232.078 373.904 237.653 368.532 237.921 361.971C238.171 355.864 234.107 351.114 228.655 349.548C228.97 345.221 229.019 340.88 228.801 336.547C234.731 335.188 239.521 330.238 241.773 324.719C245.743 314.987 242.741 304.594 239.445 295.136C242.558 294.5 245.627 293.66 248.63 292.623C259.478 310.198 261.876 331.515 254.448 350.932C247.625 368.771 234.85 383.517 225.499 400.053C216.148 383.515 203.375 368.773 196.551 350.932V350.932Z" fill="#F7F7FC"/>
<path d="M270.018 258.868C283.714 240.765 284.758 215.133 272.655 195.939C258.23 173.064 229.527 164.284 204.541 173.945C204.321 174.079 204.083 174.18 203.833 174.243C182.261 183.785 168.227 205.706 170.004 229.477C171.705 252.213 187.45 272.097 209.309 278.767C231.549 285.553 256.053 277.327 270.018 258.868ZM244.506 271.433C242.114 272.42 239.648 273.215 237.13 273.81C236.212 268.836 235.295 263.863 234.376 258.889C237.344 258.123 240.19 256.944 242.831 255.387L251.437 267.888C249.225 269.254 246.908 270.439 244.506 271.433V271.433ZM199.076 236.425C192.875 221.43 200.39 205.743 214.528 199.029C228.521 194.023 244.228 198.873 251.144 212.686C258.522 227.423 251.577 245.658 236.425 251.923C221.922 257.921 205.074 250.927 199.076 236.425ZM256.262 264.469C253.394 260.303 250.527 256.138 247.659 251.972C249.209 250.655 250.639 249.202 251.933 247.631L264.407 256.219C262.024 259.278 259.29 262.047 256.262 264.469V264.469ZM267.749 251.34L255.294 242.767C256.812 240.125 257.984 237.298 258.78 234.356L273.659 237.102C272.418 242.119 270.425 246.919 267.749 251.34V251.34ZM274.747 231.295C269.775 230.377 264.804 229.46 259.832 228.543C260.029 226.517 260.047 224.477 259.885 222.448C264.872 221.527 269.86 220.606 274.847 219.686C275.269 223.546 275.235 227.443 274.747 231.295V231.295ZM267.927 199.536C268.917 201.143 269.814 202.805 270.615 204.513C272.011 207.511 273.095 210.644 273.85 213.863L258.888 216.624C258.133 213.653 256.95 210.807 255.376 208.177L267.927 199.536ZM264.537 194.692C260.356 197.57 256.175 200.448 251.993 203.326C250.68 201.767 249.227 200.331 247.653 199.037L256.262 186.531C259.339 188.908 262.117 191.648 264.537 194.692V194.692ZM237.081 177.451C242.113 178.623 246.934 180.562 251.377 183.199C248.503 187.373 245.63 191.546 242.757 195.72C240.108 194.233 237.276 193.096 234.334 192.337C235.25 187.375 236.166 182.413 237.081 177.451V177.451ZM231.261 176.44C230.345 181.401 229.43 186.362 228.514 191.323C226.506 191.136 224.486 191.117 222.475 191.267C221.559 186.304 220.644 181.341 219.728 176.379C223.563 175.975 227.431 175.995 231.261 176.44V176.44ZM206.43 179.548C208.861 178.627 211.356 177.885 213.896 177.327C214.812 182.29 215.727 187.253 216.643 192.216C215.277 192.541 213.93 192.944 212.61 193.423C212.478 193.477 212.35 193.539 212.226 193.61C212.116 193.642 212.008 193.68 211.901 193.723C210.638 194.307 209.409 194.964 208.22 195.688C205.362 191.535 202.503 187.383 199.644 183.23C201.814 181.84 204.082 180.61 206.43 179.548V179.548ZM194.85 186.693C197.709 190.846 200.568 194.999 203.426 199.152C201.896 200.464 200.477 201.902 199.186 203.45C195.041 200.597 190.895 197.743 186.75 194.889C189.141 191.867 191.857 189.119 194.85 186.693V186.693ZM183.35 199.727C187.49 202.578 191.631 205.428 195.772 208.278C194.23 210.901 193.035 213.714 192.217 216.644C187.253 215.728 182.29 214.812 177.327 213.896C178.597 208.892 180.628 204.114 183.35 199.727L183.35 199.727ZM176.222 219.699C181.187 220.615 186.151 221.531 191.115 222.448C190.914 224.48 190.9 226.526 191.073 228.56C186.099 229.479 181.125 230.397 176.151 231.314C175.706 227.454 175.73 223.554 176.222 219.699L176.222 219.699ZM183.114 251.436C181.748 249.224 180.562 246.907 179.567 244.506C178.577 242.114 177.775 239.649 177.169 237.132L192.087 234.379C192.871 237.343 194.061 240.185 195.623 242.823L183.114 251.436ZM186.526 256.265L199.042 247.649C200.359 249.196 201.811 250.625 203.379 251.917C200.513 256.081 197.647 260.245 194.78 264.41C191.719 262.028 188.949 259.294 186.526 256.265L186.526 256.265ZM213.898 273.663C208.877 272.43 204.072 270.44 199.649 267.764C202.511 263.606 205.374 259.448 208.236 255.291C210.877 256.809 213.704 257.981 216.645 258.778C215.729 263.74 214.813 268.701 213.898 273.663L213.898 273.663ZM222.456 259.842C224.483 260.039 226.523 260.054 228.553 259.888C229.471 264.862 230.389 269.836 231.307 274.81C227.451 275.238 223.558 275.212 219.708 274.732C220.623 269.769 221.539 264.806 222.456 259.842V259.842Z" fill="#F7F7FC"/>
<path d="M238.42 232.139C237.329 231.265 236.207 230.425 235.088 229.583C239.833 230.35 244.748 230.654 248.601 228.06C250.506 226.777 250.506 224.223 248.601 222.941C244.748 220.348 239.829 220.651 235.084 221.418C236.204 220.574 237.326 219.735 238.42 218.861C240.985 216.812 243.061 214.326 243.635 211.011C244.041 208.675 242.326 206.96 239.989 207.365C236.677 207.939 234.192 210.02 232.139 212.581C231.265 213.672 230.426 214.794 229.583 215.913C230.35 211.168 230.654 206.252 228.06 202.399C226.777 200.495 224.223 200.495 222.941 202.399C220.348 206.252 220.65 211.171 221.418 215.916C220.575 214.797 219.735 213.674 218.861 212.581C216.812 210.015 214.326 207.939 211.011 207.365C208.675 206.959 206.96 208.675 207.365 211.011C207.939 214.324 210.02 216.808 212.581 218.861C213.672 219.736 214.794 220.575 215.913 221.417C211.168 220.65 206.252 220.347 202.399 222.941C200.494 224.224 200.494 226.777 202.399 228.06C206.252 230.653 211.171 230.35 215.916 229.583C214.797 230.426 213.674 231.266 212.581 232.139C210.015 234.188 207.939 236.674 207.365 239.989C206.96 242.326 208.675 244.04 211.011 243.635C214.324 243.062 216.809 240.98 218.861 238.419C219.736 237.329 220.575 236.207 221.417 235.088C220.65 239.833 220.347 244.748 222.941 248.601C224.224 250.506 226.777 250.506 228.06 248.601C230.653 244.748 230.35 239.829 229.583 235.084C230.426 236.203 231.266 237.326 232.139 238.419C234.188 240.985 236.674 243.061 239.989 243.635C242.326 244.041 244.04 242.326 243.635 239.989C243.062 236.676 240.98 234.192 238.42 232.139ZM225.904 225.67C225.869 225.713 225.839 225.76 225.806 225.805C225.76 225.839 225.711 225.869 225.668 225.906C225.612 225.911 225.555 225.925 225.5 225.933C225.443 225.924 225.387 225.911 225.329 225.905C225.287 225.869 225.239 225.84 225.194 225.806C225.16 225.761 225.13 225.712 225.093 225.668C225.088 225.613 225.074 225.556 225.066 225.501C225.074 225.443 225.088 225.388 225.094 225.33C225.13 225.287 225.159 225.24 225.193 225.195C225.238 225.161 225.287 225.131 225.33 225.095C225.387 225.089 225.443 225.076 225.498 225.067C225.555 225.076 225.611 225.09 225.669 225.095C225.711 225.131 225.759 225.16 225.804 225.194C225.838 225.239 225.869 225.288 225.905 225.332C225.911 225.388 225.924 225.445 225.933 225.499C225.925 225.556 225.911 225.613 225.906 225.67H225.904Z" fill="#F7F7FC"/>
<path d="M181.111 406.612L177.243 402.743L175.642 401.142C160.698 401.743 146.037 397.173 131.114 396.708C137.669 389.779 142.886 381.767 148.7 374.2L144.613 370.113C137.287 379.649 130.696 389.915 121.458 397.726C120.296 398.709 120.276 399.958 120.842 400.956C121.155 402.049 122.05 402.905 123.554 402.786C142.703 401.277 162.157 408.762 181.111 406.612Z" fill="#F7F7FC"/>
<path d="M44.4185 269.919C42.297 288.836 49.7229 308.304 48.2134 327.446C48.0955 328.945 48.9486 329.841 50.04 330.156C51.0383 330.725 52.2893 330.706 53.2734 329.542C61.0888 320.3 71.356 313.723 80.8972 306.398L76.8039 302.306C69.2363 308.116 61.2205 313.337 54.2907 319.892C53.827 304.97 49.2543 290.343 49.876 275.378L49.8591 275.361L49.3921 274.894L44.4185 269.919Z" fill="#F7F7FC"/>
<path d="M177.749 413.553C172.546 413.528 168.212 417.817 167.987 422.964C167.753 428.325 171.836 432.356 176.866 433.029C177.445 433.145 178.042 433.146 178.622 433.031C183.53 432.382 187.53 428.556 187.53 423.335C187.53 418.004 183.057 413.579 177.749 413.553ZM177.749 427.188C172.806 426.922 172.767 419.482 177.749 419.482C182.736 419.482 182.689 426.922 177.749 427.187V427.188Z" fill="#F7F7FC"/>
<path d="M28.0364 263.49C22.6752 263.256 18.6441 267.339 17.971 272.369C17.8547 272.948 17.8541 273.545 17.969 274.124C18.6184 279.032 22.4443 283.033 27.6655 283.033C32.9963 283.033 37.4211 278.56 37.4468 273.252C37.4725 268.049 33.1828 263.714 28.0364 263.49ZM23.8128 273.252C24.0789 268.309 31.5193 268.27 31.5193 273.252C31.5184 278.238 24.0776 278.192 23.8128 273.252Z" fill="#F7F7FC"/>
<path d="M213.085 438.585C203.817 444.639 193.076 447.989 180.841 446.721C156.262 431.083 130.596 405.44 100.237 409.506C117.59 396.315 122.591 373.868 126.32 351.82L119.468 344.968C116.71 358.729 114.219 372.589 108.037 385.186C99.3264 402.938 83.0395 415.31 63.9581 419.861C62.8021 417.471 61.5083 415.151 60.0831 412.911C59.7936 412.457 59.4867 412.02 59.1883 411.575C68.1772 407.23 77.5767 402.03 81.6461 392.381C83.9886 386.827 84.063 380.012 80.8393 374.83C84.0614 371.927 87.0972 368.824 89.9285 365.538C94.7199 368.218 100.787 367.787 104.938 363.669C109.722 358.921 109.722 350.811 104.938 346.063C100.137 341.299 92.1276 341.267 87.3312 346.063C83.1951 350.199 82.7838 356.281 85.4622 361.071C82.1828 363.897 79.0847 366.927 76.1863 370.143C71.0212 366.905 64.1234 367.032 58.6199 369.354C48.9321 373.439 43.7229 382.91 39.3676 391.932C36.7148 390.189 33.9485 388.626 31.0872 387.252C35.5972 368.081 47.9997 351.705 65.8142 342.963C78.4088 336.782 92.2705 334.291 106.031 331.532L99.1792 324.68C77.1307 328.409 54.6856 333.41 41.4927 350.764C45.5575 320.407 19.915 294.735 4.27796 270.159C3.012 257.929 6.36248 247.189 12.4172 237.918L10.6684 236.169L4.98581 230.486C3.06961 233.43 1.40191 236.528 0 239.749L0 276.447C9.35216 292.985 22.1254 307.727 28.9495 325.568C36.391 345.025 33.9723 366.385 23.0675 383.983C20.0653 382.963 16.9994 382.142 13.8897 381.525C17.2099 372.019 20.2684 361.574 16.2737 351.781C14.002 346.213 9.23062 341.359 3.30019 339.978C3.51979 335.638 3.47137 331.288 3.1552 326.954C8.4319 325.443 12.4499 320.951 12.4499 315.046C12.4499 308.283 6.76117 302.597 0.000451 302.597V308.525C8.43257 308.525 8.35771 321.117 0.000451 321.567V349.232C7.2841 349.232 10.6652 357.49 10.8181 363.555C10.9647 369.381 8.90003 375.062 6.97877 380.483C4.66529 380.251 2.33904 380.131 0 380.124V386.038C17.3957 386.029 34.4097 392.712 47.0673 405.885C58.83 418.126 65.0414 434.508 65.1055 451H70.9924C70.9996 448.653 70.8925 446.309 70.671 443.967C75.7281 442.174 80.9816 440.287 86.3933 440.205C92.6665 440.111 101.768 443.159 101.768 451H129.433C129.884 442.645 142.475 442.573 142.475 451H148.404C148.404 444.422 143.032 438.847 136.471 438.579C130.364 438.329 125.614 442.393 124.048 447.845C119.721 447.53 115.379 447.481 111.047 447.699C109.687 441.77 104.738 436.979 99.2186 434.727C89.4976 430.761 79.1156 433.752 69.6653 437.045C69.0607 433.915 68.2448 430.829 67.2231 427.809C84.779 417.014 106.052 414.638 125.432 422.05C143.271 428.874 158.017 441.648 174.553 451H211.251C214.472 449.599 217.571 447.931 220.515 446.015L213.085 438.585ZM100.746 350.255C106.701 356.211 97.6967 365.171 91.5226 359.478C85.8361 353.311 94.7871 344.296 100.746 350.255V350.255ZM45.0019 396.039C47.3072 391.201 49.6923 386.154 53.4552 382.278C57.8241 377.778 66.4127 373.492 71.96 379.039C77.1133 384.192 73.6584 392.419 69.4813 396.816C65.5274 400.978 60.1431 403.528 55.0204 405.968C52.0238 402.33 48.6676 399.004 45.0028 396.039H45.0019Z" fill="#F7F7FC"/>
<path d="M0 395.57V401.591C1.92524 401.601 3.84844 401.718 5.76085 401.94C4.84532 406.901 3.92971 411.862 3.01403 416.823C2.01439 416.733 1.00911 416.68 0 416.669V422.609C10.5277 422.617 20.5092 427.931 25.6436 438.187C27.635 442.162 28.6505 446.554 28.606 451H34.4932C34.5029 449.985 34.4668 448.967 34.3847 447.947C39.3723 447.027 44.3598 446.106 49.3471 445.186C49.5582 447.117 49.6554 449.058 49.638 451H55.5585C55.5686 440.69 52.7848 430.368 47.1545 421.439C36.6737 404.817 18.6543 395.642 0 395.57ZM17.2573 421.22C14.6077 419.732 11.7762 418.595 8.83396 417.837C9.74964 412.874 10.6655 407.912 11.5815 402.95C16.6131 404.122 21.4345 406.061 25.8766 408.698C23.0033 412.872 20.1302 417.046 17.2573 421.22ZM22.1527 424.536L30.7618 412.03C33.8392 414.407 36.6179 417.148 39.0377 420.192C34.8569 423.07 30.6757 425.948 26.4942 428.826C25.1806 427.267 23.7274 425.831 22.1527 424.536V424.536ZM33.3875 442.124C33.0344 440.76 32.5966 439.419 32.0765 438.11C31.4512 436.581 30.7157 435.1 29.8758 433.677L42.4274 425.037C43.417 426.643 44.3144 428.305 45.1151 430.014C46.5113 433.011 47.5952 436.144 48.3497 439.364L33.3875 442.124Z" fill="#F7F7FC"/>
<path d="M23.1011 448.44C19.248 445.847 14.3292 446.15 9.5842 446.917C10.7036 446.074 11.8261 445.234 12.9198 444.361C15.4851 442.311 17.5613 439.826 18.1354 436.511C18.5413 434.174 16.8257 432.46 14.489 432.865C11.1767 433.438 8.6919 435.52 6.6394 438.08C5.76491 439.171 4.9256 440.293 4.08335 441.412C4.85005 436.667 5.1538 431.751 2.55965 427.899C2.28506 427.467 1.9073 427.11 1.46044 426.861C1.01358 426.611 0.511677 426.477 0 426.47L0 450.566C0.056826 450.576 0.11275 450.589 0.169801 450.595C0.212195 450.63 0.260001 450.66 0.305101 450.693C0.339377 450.739 0.369594 450.788 0.4059 450.831C0.411537 450.887 0.424616 450.944 0.433411 450.999V451H24.5299C24.5229 450.488 24.3887 449.986 24.1392 449.539C23.8898 449.093 23.533 448.715 23.1011 448.44V448.44Z" fill="#F7F7FC"/>
<path d="M304.053 372.447L302.304 374.196C308.115 381.764 313.336 389.778 319.89 396.709C304.968 397.173 290.342 401.745 275.377 401.124L269.92 406.581C288.836 408.702 308.305 401.276 327.447 402.786C328.946 402.904 329.842 402.051 330.157 400.959C330.726 399.961 330.707 398.71 329.543 397.725C320.3 389.91 313.724 379.643 306.399 370.102L304.053 372.447Z" fill="#F7F7FC"/>
<path d="M401.142 275.36C401.742 290.304 397.173 304.964 396.708 319.887C389.779 313.332 381.767 308.116 374.2 302.301L374.197 302.304L370.99 305.511L370.115 306.387C379.651 313.713 389.916 320.305 397.727 329.542C398.71 330.704 399.96 330.725 400.957 330.158C402.05 329.845 402.906 328.95 402.788 327.446C401.277 308.297 408.763 288.844 406.613 269.889L401.142 275.36Z" fill="#F7F7FC"/>
<path d="M433.031 272.379C432.382 267.471 428.556 263.47 423.335 263.47C418.004 263.47 413.579 267.943 413.553 273.252C413.527 278.454 417.817 282.789 422.963 283.013C428.324 283.247 432.356 279.164 433.029 274.134C433.145 273.555 433.145 272.958 433.031 272.379H433.031ZM419.481 273.252C419.481 268.265 426.923 268.311 427.188 273.252C426.922 278.194 419.481 278.233 419.481 273.252Z" fill="#F7F7FC"/>
<path d="M273.251 413.553C268.049 413.528 263.714 417.817 263.49 422.964C263.256 428.325 267.339 432.356 272.369 433.029C272.948 433.145 273.545 433.146 274.124 433.031C279.032 432.382 283.033 428.556 283.033 423.335C283.033 418.004 278.56 413.579 273.251 413.553ZM273.251 427.188C268.309 426.922 268.27 419.482 273.251 419.482C278.238 419.482 278.192 426.922 273.251 427.187V427.188Z" fill="#F7F7FC"/>
<path d="M446.015 230.485L438.586 237.915C444.639 247.183 447.989 257.924 446.721 270.159C431.083 294.738 405.44 320.405 409.506 350.763C396.315 333.41 373.868 328.409 351.82 324.68L344.968 331.532C358.729 334.29 372.589 336.782 385.185 342.963C402.958 351.684 415.339 367.998 419.877 387.108C417.028 388.536 414.275 390.149 411.636 391.937C407.278 382.91 402.074 373.442 392.381 369.354C386.827 367.012 380.012 366.937 374.83 370.161C371.927 366.939 368.823 363.903 365.538 361.071C368.218 356.28 367.787 350.213 363.668 346.063C358.92 341.278 350.811 341.278 346.063 346.063C341.299 350.863 341.267 358.873 346.063 363.669C350.199 367.805 356.281 368.216 361.071 365.538C363.897 368.817 366.927 371.915 370.143 374.814C366.904 379.978 367.032 386.878 369.353 392.381C373.446 402.084 382.942 407.295 391.977 411.655C390.206 414.296 388.61 417.05 387.202 419.901C368.053 415.381 351.698 402.986 342.962 385.186C336.782 372.591 334.29 358.729 331.532 344.968L324.68 351.82C328.409 373.869 333.41 396.314 350.764 409.507C320.407 405.441 294.735 431.084 270.159 446.721C257.928 447.987 247.189 444.637 237.918 438.582L237.914 438.585L230.485 446.015C233.429 447.931 236.528 449.598 239.748 451H276.447C292.985 441.648 307.727 428.875 325.568 422.05C344.976 414.627 366.275 417.018 383.847 427.851C382.787 430.849 381.932 433.915 381.288 437.028C371.845 433.74 361.492 430.765 351.781 434.728C346.213 437 341.359 441.771 339.978 447.701C335.638 447.482 331.288 447.531 326.954 447.847C325.443 442.57 320.951 438.552 315.046 438.552C308.282 438.552 302.596 444.241 302.596 451.001H308.524C308.524 442.569 321.117 442.644 321.567 451.001H349.232C349.232 443.718 357.49 440.337 363.555 440.184C369.294 440.039 374.891 442.04 380.237 443.936C379.997 446.283 379.875 448.641 379.872 451.001H385.792C385.867 425.157 401.761 401.534 425.948 390.768C433.935 387.658 442.429 386.054 451 386.038V380.124C448.673 380.117 446.341 380.221 444.005 380.436C442.201 375.346 440.287 370.057 440.205 364.606C440.11 358.333 443.158 349.231 451 349.231V321.567C442.644 321.116 442.573 308.525 451 308.525V302.596C444.422 302.596 438.847 307.968 438.579 314.529C438.329 320.637 442.392 325.386 447.845 326.952C447.53 331.279 447.481 335.621 447.699 339.953C441.77 341.312 436.978 346.262 434.727 351.781C430.75 361.529 433.769 371.941 437.072 381.412C433.942 382.008 430.855 382.809 427.83 383.811C417.017 366.248 414.633 344.961 422.051 325.568C428.874 307.729 441.649 292.983 451.001 276.447V239.749C449.599 236.528 447.931 233.429 446.015 230.485V230.485ZM359.477 359.477C353.31 365.164 344.296 356.213 350.254 350.254C356.212 344.294 365.171 353.303 359.477 359.477V359.477ZM396.158 406.054C391.284 403.732 386.186 401.339 382.277 397.544C377.777 393.175 373.491 384.586 379.039 379.039C384.192 373.886 392.418 377.341 396.816 381.518C401.02 385.512 403.579 390.966 406.042 396.135C402.438 399.118 399.129 402.44 396.158 406.054V406.054Z" fill="#F7F7FC"/>
<path d="M430.041 399.445C429.821 399.579 429.583 399.68 429.333 399.743C408.97 408.751 395.328 428.788 395.356 451H401.336C401.348 449.06 401.477 447.123 401.722 445.199C406.687 446.115 411.651 447.031 416.615 447.947C416.514 448.958 416.46 449.976 416.454 451H422.386C422.425 439.83 429.329 429.61 440.028 424.529C443.547 423.263 447.259 422.614 451 422.61V416.669C449.995 416.658 448.986 416.689 447.976 416.767C447.059 411.804 446.143 406.841 445.228 401.879C447.145 401.677 449.072 401.581 451 401.592V395.571C443.834 395.544 436.725 396.858 430.041 399.445ZM417.716 442.144C412.753 441.228 407.79 440.312 402.826 439.396C404.097 434.392 406.128 429.614 408.849 425.227C412.99 428.078 417.13 430.928 421.271 433.778C419.73 436.401 418.535 439.213 417.716 442.144V442.144ZM424.686 428.95C420.54 426.097 416.395 423.243 412.25 420.389C414.64 417.368 417.357 414.619 420.35 412.193C423.209 416.346 426.067 420.499 428.926 424.652C427.396 425.964 425.977 427.402 424.686 428.95H424.686ZM438.109 418.924C437.977 418.977 437.849 419.04 437.726 419.11C437.616 419.142 437.507 419.18 437.401 419.223C436.137 419.808 434.909 420.464 433.72 421.188L425.144 408.73C429.432 405.793 434.286 403.783 439.395 402.828C440.311 407.791 441.227 412.754 442.143 417.717C440.776 418.042 439.43 418.444 438.11 418.924H438.109Z" fill="#F7F7FC"/>
<path d="M448.44 427.899C445.847 431.752 446.15 436.671 446.917 441.416C446.074 440.296 445.234 439.174 444.361 438.08C442.312 435.515 439.826 433.439 436.511 432.865C434.174 432.459 432.46 434.174 432.865 436.511C433.438 439.823 435.52 442.308 438.08 444.361C439.171 445.235 440.293 446.075 441.412 446.917C436.667 446.15 431.751 445.846 427.899 448.44C427.467 448.715 427.11 449.093 426.861 449.539C426.611 449.986 426.477 450.488 426.47 451H450.567C450.575 450.943 450.589 450.887 450.595 450.83C450.63 450.787 450.66 450.74 450.694 450.695C450.739 450.661 450.788 450.631 450.831 450.595C450.887 450.589 450.944 450.576 450.999 450.567V426.47C450.488 426.477 449.986 426.612 449.539 426.861C449.092 427.11 448.715 427.467 448.44 427.899V427.899Z" fill="#F7F7FC"/>
</g>
</g>
<defs>
<clipPath id="clip0_7_3523">
<rect width="451" height="451" rx="225.5" fill="white"/>
</clipPath>
</defs>
</svg>
